<svg id="logo" xmlns="http://www.w3.org/2000/svg" width="144" height="40" viewBox="0 0 144 40">
  <path id="amazon" d="M0,35.549H3.36c.167,1.019,1.262,1.612,2.651,1.612,1.409,0,2.326-.633,2.326-1.5,0-.792-.611-1.2-2.3-1.524l-1.458-.277c-2.838-.534-4.306-1.929-4.306-4.1,0-2.75,2.374-4.521,5.646-4.521,3.577,0,5.685,1.76,5.724,4.481H8.286c-.059-1.029-1.024-1.642-2.336-1.642s-2.088.594-2.088,1.435c0,.752.65,1.167,2.2,1.463l1.458.277c3.035.583,4.415,1.82,4.415,4.065C11.932,38.18,9.7,40,5.942,40,2.394,40,.049,38.358,0,35.549Zm67.375,4.2-2.443-5H63.089v5H59.473V25.48h6.089c3.547,0,5.459,1.76,5.459,4.708a4.28,4.28,0,0,1-2.434,4.036l2.848,5.53Zm-19.687,0V25.48h9.745v2.928H51.3v2.839h5.764v2.67H51.3v2.909h6.129v2.928Zm-11.153,0V25.48h3.615V36.825h5.882v2.928Zm-11.154,0V25.48H29V36.825H34.88v2.928Zm-11.785,0V25.48h9.744v2.928H17.213v2.839h5.764v2.67H17.213v2.909h6.128v2.928ZM89.858,9.935C89.858,3.757,93.582,0,99.275,0s9.418,3.739,9.418,9.935c0,6.285-3.671,9.97-9.418,9.97S89.858,16.2,89.858,9.935ZM51.584,14.012c0-3.472,2.66-5.484,7.4-5.769l4.788-.284V6.694c0-1.78-1.241-2.812-3.192-2.812-1.933,0-3.156.961-3.4,2.368H52.436c.2-3.7,3.334-6.25,8.371-6.25,4.878,0,8.052,2.528,8.052,6.374V19.5h-5v-2.92h-.106a6.535,6.535,0,0,1-5.8,3.223C54.334,19.8,51.584,17.448,51.584,14.012Zm-51.238,0c0-3.472,2.66-5.484,7.4-5.769l4.788-.284V6.694c0-1.78-1.241-2.812-3.192-2.812-1.933,0-3.156.961-3.4,2.368H1.2C1.393,2.546,4.532,0,9.57,0c4.877,0,8.051,2.528,8.051,6.374V19.5h-5v-2.92h-.106a6.535,6.535,0,0,1-5.8,3.223C3.1,19.8.347,17.448.347,14.012ZM123.821,19.5V8.279c0-2.493-1.17-3.917-3.494-3.917s-3.8,1.709-3.8,4.184V19.5h-5.179V.41h5v3.4h.106A6.006,6.006,0,0,1,122.4.053c4.221,0,6.6,2.671,6.6,7.14V19.5Zm-51.982,0V16.54L81.31,4.487V4.379H71.98V.41H87.322V3.7l-8.9,11.715v.088h9.115V19.5Zm-27.987,0V7.763c0-2.208-1.1-3.418-3.1-3.418A3.235,3.235,0,0,0,37.485,7.9V19.5H32.5V7.6c0-2.048-1.153-3.258-3.069-3.258a3.313,3.313,0,0,0-3.3,3.632V19.5H20.956V.41h5V3.864h.106A5.583,5.583,0,0,1,31.49.053a5.054,5.054,0,0,1,5.3,3.917H36.9A6.023,6.023,0,0,1,42.806.053c3.724,0,6.225,2.564,6.225,6.41V19.5Z" fill="#1fc468"/>
</svg>
