<svg id="icon_icon-monitor" data-name="icon/icon-monitor" xmlns="http://www.w3.org/2000/svg" width="64" height="71" viewBox="0 0 64 71">
  <g id="icon-monitor">
    <g id="Oval" fill="#fff" stroke="#ff9a47" stroke-miterlimit="10" stroke-width="2">
      <circle cx="32" cy="32" r="32" stroke="none"/>
      <circle cx="32" cy="32" r="31" fill="none"/>
    </g>
    <g id="monitor" transform="translate(16 12)">
      <rect id="frame" width="32" height="32" fill="none"/>
      <path id="Combined_Shape" data-name="Combined Shape" d="M22.217,30.163l-.936-3.879a.654.654,0,0,1,.495-.788.662.662,0,0,1,.8.486l.936,3.878a.654.654,0,0,1-.5.788.645.645,0,0,1-.153.018A.664.664,0,0,1,22.217,30.163Zm-13.241.485a.653.653,0,0,1-.5-.788l.936-3.879a.663.663,0,0,1,.8-.485.653.653,0,0,1,.494.788l-.936,3.879a.664.664,0,0,1-.648.5A.647.647,0,0,1,8.977,30.649ZM.667,24.211A.661.661,0,0,1,0,23.557V2.617a.661.661,0,0,1,.667-.654h10V.654A.667.667,0,0,1,12,.654V1.963h8V.654a.667.667,0,0,1,1.334,0V1.963h10A.661.661,0,0,1,32,2.617V23.557a.661.661,0,0,1-.667.654ZM1.333,22.9H30.667V3.272H1.333Zm20.211-2.612a1.557,1.557,0,0,1-1.607-1.538V10.11a1.623,1.623,0,0,1,1.607-1.6H23.66a1.624,1.624,0,0,1,1.609,1.6v8.643a1.491,1.491,0,0,1-.445,1.061,1.629,1.629,0,0,1-1.164.477ZM21.271,10.11v8.643a.25.25,0,0,0,.274.229H23.66a.255.255,0,0,0,.276-.229V10.11a.3.3,0,0,0-.276-.288H21.544A.3.3,0,0,0,21.271,10.11ZM8.21,20.291A1.575,1.575,0,0,1,6.6,18.753v-.79a1.624,1.624,0,0,1,1.607-1.6h2.117a1.625,1.625,0,0,1,1.608,1.6v.79a1.576,1.576,0,0,1-1.608,1.537Zm-.274-2.327v.79a.251.251,0,0,0,.274.229h2.117a.254.254,0,0,0,.275-.229v-.79a.3.3,0,0,0-.275-.289H8.21A.3.3,0,0,0,7.935,17.963Zm6.942,2.326a1.575,1.575,0,0,1-1.607-1.537V14.036a1.624,1.624,0,0,1,1.607-1.6h2.117a1.625,1.625,0,0,1,1.609,1.6v4.717a1.576,1.576,0,0,1-1.609,1.537ZM14.6,14.036v4.717a.251.251,0,0,0,.275.229h2.117a.254.254,0,0,0,.275-.229V14.036a.3.3,0,0,0-.275-.288H14.877A.3.3,0,0,0,14.6,14.036Zm-5.138-.52a.646.646,0,0,1,0-.925L14.958,7.2H13.327a.654.654,0,1,1,0-1.309H16.66a.66.66,0,0,1,.667.654V9.815a.667.667,0,0,1-1.333,0V8.031l-5.587,5.484a.675.675,0,0,1-.942,0Z" transform="translate(0 1.333)" fill="#ff9a47"/>
    </g>
    <g id="monitor-2" data-name="monitor" transform="translate(0 47)">
      <rect id="Rectangle" width="64" height="21" rx="2" fill="#ff9a47"/>
      <text id="Monitor-3" data-name="Monitor" transform="translate(32 20)" fill="#fff" font-size="14" font-family="SegoeUI, Segoe UI"><tspan x="-24.951" y="0">Monitor</tspan></text>
    </g>
  </g>
</svg>
