<svg id="icon_icon-tick" data-name="icon/icon-tick" xmlns="http://www.w3.org/2000/svg" width="14" height="14" viewBox="0 0 14 14">
  <g id="icon_tick">
    <rect id="frame" width="14" height="14" fill="none"/>
    <path id="Path" d="M13.389.092c-.632-.33-1.336.307-1.749.684-.948.9-1.749,1.933-2.648,2.876-1,1.037-1.92,2.075-2.94,3.089a8.568,8.568,0,0,0-1.6,1.886,31.479,31.479,0,0,0-2.6-2.452c-.7-.519-1.871-.9-1.847.354C.049,8.155,1.531,9.9,2.625,11.008A2.8,2.8,0,0,0,4.4,12c.85.047,1.725-.943,2.235-1.485.9-.943,1.628-2,2.454-2.971C10.157,6.269,11.25,5.02,12.3,3.723,12.951,2.921,15.017.941,13.389.092Z" transform="translate(0 1)" fill="#3850ba"/>
  </g>
</svg>
